<svg width="128" height="82" viewBox="0 0 128 82" fill="none" xmlns="http://www.w3.org/2000/svg">
<path d="M41 82C32.891 82 24.964 79.5954 18.2216 75.0903C11.4792 70.5851 6.22413 64.1818 3.12094 56.69C0.0177455 49.1982 -0.794191 40.9545 0.787804 33.0013C2.3698 25.0481 6.27467 17.7426 12.0086 12.0086C17.7426 6.27467 25.0481 2.3698 33.0013 0.787802C40.9545 -0.794191 49.1983 0.0177473 56.69 3.12094C64.1818 6.22414 70.5851 11.4792 75.0903 18.2216C79.5954 24.964 82 32.891 82 41L58.1586 41C58.1586 37.6064 57.1523 34.2889 55.2669 31.4672C53.3814 28.6455 50.7016 26.4462 47.5663 25.1475C44.431 23.8488 40.981 23.509 37.6525 24.1711C34.3241 24.8332 31.2667 26.4674 28.867 28.867C26.4674 31.2667 24.8332 34.3241 24.1711 37.6525C23.509 40.981 23.8488 44.431 25.1475 47.5663C26.4462 50.7016 28.6455 53.3814 31.4672 55.2669C34.2889 57.1523 37.6063 58.1586 41 58.1586L41 82Z" fill="#087BAA" fill-opacity="0.5"/>
<circle cx="123" cy="65" r="5" fill="#087BAA" fill-opacity="0.5"/>
<path d="M86.3704 48.304V82H78.1624V61.792L70.6264 82H64.0024L56.4184 61.744V82H48.2104V48.304H57.9064L67.3624 71.632L76.7224 48.304H86.3704ZM111.809 82L100.481 67.12V82H92.2729V48.304H100.481V63.088L111.713 48.304H121.361L108.305 64.816L121.841 82H111.809Z" fill="white"/>
</svg>
