<svg width="55" height="38" viewBox="0 0 55 38" fill="none" xmlns="http://www.w3.org/2000/svg">
<path d="M17.6172 37.0952C14.1328 37.0952 10.7267 36.0074 7.8296 33.9694C4.93247 31.9314 2.67443 29.0346 1.34103 25.6455C0.00762502 22.2563 -0.341254 18.527 0.33851 14.9292C1.01827 11.3313 2.69615 8.0264 5.15996 5.43247C7.62376 2.83854 10.7628 1.07205 14.1802 0.356387C17.5976 -0.359277 21.1399 0.00802853 24.359 1.41185C27.5781 2.81568 30.3295 5.19298 32.2653 8.24312C34.2011 11.2933 35.2344 14.8792 35.2344 18.5476L24.99 18.5476C24.99 17.0124 24.5576 15.5117 23.7475 14.2352C22.9373 12.9587 21.7859 11.9638 20.4387 11.3763C19.0914 10.7888 17.609 10.635 16.1788 10.9345C14.7486 11.2341 13.4349 11.9733 12.4038 13.0589C11.3727 14.1445 10.6705 15.5276 10.386 17.0333C10.1015 18.539 10.2475 20.0997 10.8056 21.5181C11.3636 22.9365 12.3086 24.1487 13.5211 25.0017C14.7335 25.8546 16.159 26.3098 17.6172 26.3098V37.0952Z" fill="#087BAA"/>
<ellipse cx="52.8516" cy="29.4047" rx="2.14844" ry="2.2619" fill="#087BAA" fill-opacity="0.5"/>
<path d="M37.0722 22.162V36.262H33.1522V28.482L30.4922 36.262H27.2122L24.5322 28.422V36.262H20.6122V22.162H25.3522L28.8922 31.322L32.3522 22.162H37.0722ZM47.6436 36.262L43.2236 30.082V36.262H39.3036V22.162H43.2236V28.242L47.6036 22.162H52.1236L46.9436 29.002L52.3836 36.262H47.6436Z" fill="#1C2329" fill-opacity="0.96"/>
</svg>
